<svg width="24" height="24" viewBox="0 0 24 24" fill="none" xmlns="http://www.w3.org/2000/svg">
<path d="M5.99837 7.24372C5.83504 6.84941 5.75098 6.4268 5.75098 6C5.75098 5.13805 6.09339 4.3114 6.70288 3.7019C7.31237 3.09241 8.13902 2.75 9.00098 2.75C9.86293 2.75 10.6896 3.09241 11.2991 3.7019C11.9086 4.3114 12.251 5.13805 12.251 6C12.251 6.4268 12.1669 6.84941 12.0036 7.24372C11.8403 7.63803 11.6009 7.99631 11.2991 8.2981C10.9973 8.59989 10.639 8.83928 10.2447 9.00261C9.85039 9.16594 9.42777 9.25 9.00098 9.25C8.57418 9.25 8.15156 9.16594 7.75726 9.00261C7.36295 8.83928 7.00467 8.59989 6.70288 8.2981C6.40109 7.99631 6.1617 7.63803 5.99837 7.24372Z" stroke="black" stroke-width="1.5"/>
<path d="M3.14106 18.0915C2.86846 17.7155 2.75098 17.3464 2.75098 17.001C2.75098 16.6555 2.86846 16.2865 3.14106 15.9104C3.41681 15.53 3.84344 15.1551 4.42333 14.8237C5.00168 14.4932 5.70426 14.2224 6.49494 14.0353C7.28468 13.8484 8.1368 13.751 9.00098 13.751C9.86515 13.751 10.7173 13.8484 11.507 14.0353C12.2977 14.2224 13.0003 14.4932 13.5786 14.8237C14.1585 15.1551 14.5851 15.53 14.8609 15.9104C15.1335 16.2865 15.251 16.6555 15.251 17.001C15.251 17.3464 15.1335 17.7155 14.8609 18.0915C14.5851 18.4719 14.1585 18.8469 13.5786 19.1782C13.0003 19.5087 12.2977 19.7795 11.507 19.9667C10.7173 20.1536 9.86515 20.251 9.00098 20.251C8.1368 20.251 7.28468 20.1536 6.49494 19.9667C5.70426 19.7795 5.00168 19.5087 4.42333 19.1782C3.84344 18.8469 3.41681 18.4719 3.14106 18.0915Z" stroke="black" stroke-width="1.5"/>
<path d="M20.2497 17.0007C20.2497 17.4972 19.9443 18.0416 19.2571 18.4968C18.9127 18.725 18.4913 18.9152 18.0146 19.0475C18.296 18.4365 18.4646 17.7533 18.4646 17.0021C18.4646 16.2499 18.2955 15.5659 18.0134 14.9543C18.49 15.0866 18.9115 15.2767 19.256 15.5048C19.9441 15.9602 20.2497 16.5047 20.2497 17.0007Z" stroke="black" stroke-width="1.5"/>
<path d="M17.2496 6.00098C17.2496 7.22281 16.2757 8.21717 15.0618 8.25013C15.3223 7.54884 15.4645 6.79043 15.4645 5.99986C15.4645 5.21014 15.3226 4.45251 15.0626 3.75184C16.2762 3.78523 17.2496 4.77941 17.2496 6.00098Z" stroke="black" stroke-width="1.5"/>
</svg>
