<svg width="24" height="24" viewBox="0 0 24 24" fill="none" xmlns="http://www.w3.org/2000/svg">
<path d="M22 22.25H2C1.86614 22.25 1.75 22.1339 1.75 22C1.75 21.8661 1.86614 21.75 2 21.75H22C22.1339 21.75 22.25 21.8661 22.25 22C22.25 22.1339 22.1339 22.25 22 22.25Z" fill="white" stroke="black"/>
<path d="M2.70228 21.5L2.7502 9.97203V9.96996C2.7502 9.27551 3.06794 8.63093 3.61676 8.20498L3.61736 8.20451L10.6172 2.75465C10.6172 2.75462 10.6172 2.75458 10.6173 2.75455C10.6173 2.75453 10.6173 2.75451 10.6174 2.75449C11.4256 2.12599 12.5634 2.12393 13.3843 2.7555C13.3846 2.75571 13.3849 2.75592 13.3852 2.75614L20.3808 8.19272C20.3812 8.19303 20.3815 8.19333 20.3819 8.19364C20.9231 8.62063 21.2502 9.28646 21.2502 9.96996V21.5H20.7502V9.97997C20.7502 9.44528 20.4989 8.93267 20.0825 8.59954L20.0826 8.5995L20.077 8.59518L13.0772 3.1553C12.4447 2.66335 11.5643 2.66746 10.9274 3.15206L10.9274 3.15203L10.923 3.15545L3.92599 8.60318C3.92545 8.60359 3.92492 8.604 3.92439 8.60441C3.50011 8.9305 3.25055 9.44708 3.2502 9.97883L3.2502 9.97789L3.7502 9.97997H3.2502L2.70228 21.5ZM2.70228 21.5H3.20227H2.70228Z" fill="white" stroke="black"/>
<path d="M7.25 21.25V21.75H7.75H16.25H16.75V21.25V12.5C16.75 11.8139 16.1861 11.25 15.5 11.25H8.5C7.81386 11.25 7.25 11.8139 7.25 12.5V21.25ZM17 22.25H7C6.86614 22.25 6.75 22.1339 6.75 22V12.5C6.75 11.5361 7.53614 10.75 8.5 10.75H15.5C16.4639 10.75 17.25 11.5361 17.25 12.5V22C17.25 22.1339 17.1339 22.25 17 22.25Z" fill="white" stroke="black"/>
<path d="M10 18C9.86614 18 9.75 17.8839 9.75 17.75V16.25C9.75 16.1161 9.86614 16 10 16C10.1339 16 10.25 16.1161 10.25 16.25V17.75C10.25 17.8839 10.1339 18 10 18Z" fill="white" stroke="black"/>
<path d="M13.5 7.75H10.5C10.3661 7.75 10.25 7.63386 10.25 7.5C10.25 7.36614 10.3661 7.25 10.5 7.25H13.5C13.6339 7.25 13.75 7.36614 13.75 7.5C13.75 7.63386 13.6339 7.75 13.5 7.75Z" fill="white" stroke="black"/>
</svg>
