<svg width="24" height="24" viewBox="0 0 24 24" fill="none" xmlns="http://www.w3.org/2000/svg">
<path d="M10.3998 5.9001C11.4493 5.9001 12.3 5.04938 12.3 3.9997C12.3 2.95058 11.4494 2.1001 10.3998 2.1001C9.35067 2.1001 8.50001 2.95053 8.5 3.99969L10.3998 5.9001ZM10.3998 5.9001C9.35085 5.9001 8.50004 5.04945 8.5 3.9997L10.3998 5.9001Z" stroke="black"/>
<path d="M20.8236 21.6749L20.8236 21.6748L17.3509 19.5234L17.257 19.4652L17.1963 19.3728L14.3981 15.1123L14.3424 15.0275L14.3242 14.9278L13.4032 9.89133L13.3047 9.35253L13.8502 9.3034L16.8472 9.03352L17.0149 9.01842L17.1575 9.10784L19.736 10.7239C19.8798 10.8139 20.0677 10.7856 20.1747 10.6687C20.1751 10.6683 20.1754 10.6679 20.1758 10.6675L20.1878 10.654L20.191 10.6505C20.3028 10.5272 20.293 10.3439 20.1632 10.2322L20.163 10.232L17.8554 8.24408C17.6933 8.10471 17.4843 8.02251 17.2633 8.01449L17.2544 8.01417L17.2545 8.01409L11.4958 7.70297C11.4958 7.70297 11.4957 7.70297 11.4957 7.70297C11.4956 7.70297 11.4956 7.70296 11.4956 7.70296C11.4258 7.69923 11.3555 7.69981 11.3008 7.70156C11.274 7.70242 11.2521 7.70352 11.2376 7.70436L11.2217 7.70536L11.2209 7.70539C11.1582 7.71053 11.0971 7.71768 11.0376 7.72733C10.6995 7.78391 10.3985 7.91885 10.1492 8.10781L10.1255 8.12584L10.0997 8.14092L5.8651 10.6187L5.62196 10.7609L5.3743 10.6267L2.707 9.18076C2.70698 9.18075 2.70696 9.18074 2.70695 9.18073C2.51864 9.07872 2.28806 9.14491 2.18563 9.30835L2.18517 9.3091L2.15218 9.36152C2.1019 9.44183 2.0882 9.53472 2.11036 9.62108L2.11049 9.62161C2.13285 9.70914 2.19162 9.78909 2.27972 9.83995L2.28007 9.84015L5.45866 11.6786L5.45888 11.6787C5.72509 11.8329 6.05198 11.8614 6.34463 11.7543C6.34468 11.7543 6.34472 11.7543 6.34476 11.7543L9.02661 10.7718L9.5459 10.5815L9.683 11.1173L10.5759 14.6064L10.7362 15.2328L10.0896 15.2303L6.32298 15.2159C5.96657 15.2149 5.63276 15.3684 5.41136 15.6274L20.8236 21.6749ZM20.8236 21.6749L20.8336 21.6808M20.8236 21.6749L20.8336 21.6808M20.8336 21.6808C21.0927 21.8331 21.1701 22.143 21.0329 22.3844L21.0148 22.4149L21.0147 22.4149L21.0112 22.4211C20.8673 22.6707 20.5327 22.7773 20.2528 22.6398L16.6115 20.7124L16.6112 20.7123C16.2271 20.5093 15.8757 20.2534 15.5687 19.9532L15.5684 19.9529L13.1132 17.5558L12.9739 17.4198L12.7792 17.4138L7.53747 17.2533L6.97094 17.2359L7.02439 17.8002L7.36243 21.3688L7.36244 21.3689C7.38854 21.644 7.18812 21.914 6.87077 21.9601L6.86858 21.9605M20.8336 21.6808L6.86858 21.9605M6.86858 21.9605L6.82814 21.9665C6.82781 21.9666 6.82748 21.9666 6.82715 21.9667C6.50409 22.0131 6.22243 21.8036 6.16668 21.5254L5.16861 16.5453M6.86858 21.9605L5.16861 16.5453M5.16861 16.5453C5.10397 16.2219 5.19108 15.8857 5.41133 15.6274L5.16861 16.5453ZM1.76196 9.04284L1.72837 9.09621C1.60635 9.29113 1.56942 9.52463 1.62604 9.74534L1.76196 9.04284Z" stroke="black"/>
</svg>
