<svg width="32" height="32" viewBox="0 0 32 32" fill="none" xmlns="http://www.w3.org/2000/svg">
<rect width="32" height="32" rx="5" fill="#20DC49"/>
<path d="M24 18.8182C24 23.3369 20.4183 27 16 27C11.5817 27 8 23.3369 8 18.8182C8 17.17 8.49142 14.4103 10 13L12.0603 15.747C12.3525 16.1366 13.0058 15.9223 13.029 15.4359C13.1465 12.9751 13.6797 8.34127 16 7C16 7 24 14.2995 24 18.8182Z" stroke="#191D1A" stroke-width="1.5" stroke-linejoin="round"/>
<path d="M19 23.3182C19 25.3516 17.6569 27 16 27C14.3431 27 13 25.3516 13 23.3182C13 21.2848 16 18 16 18C16 18 19 21.2848 19 23.3182Z" stroke="#191D1A" stroke-width="1.5" stroke-linejoin="round"/>
</svg>
