<svg width="32" height="32" viewBox="0 0 32 32" fill="none" xmlns="http://www.w3.org/2000/svg">
<rect width="32" height="32" rx="5" fill="#20DC49"/>
<path d="M16 12L17 10M11.0998 11.0011C11.0344 11.3239 11 11.6579 11 12C11 14.7614 13.2386 17 16 17C18.7614 17 21 14.7614 21 12C21 11.6579 20.9656 11.3239 20.9002 11.0011M11.0998 11.0011C11.5626 8.71831 13.5807 7 16 7C18.4193 7 20.4374 8.71831 20.9002 11.0011M11.0998 11.0011C9.87278 11.0073 9.1837 11.049 8.63803 11.327C8.07354 11.6146 7.6146 12.0735 7.32698 12.638C7 13.2798 7 14.1198 7 15.8V20.2C7 21.8802 7 22.7202 7.32698 23.362C7.6146 23.9265 8.07354 24.3854 8.63803 24.673C9.27976 25 10.1198 25 11.8 25H20.2C21.8802 25 22.7202 25 23.362 24.673C23.9265 24.3854 24.3854 23.9265 24.673 23.362C25 22.7202 25 21.8802 25 20.2V15.8C25 14.1198 25 13.2798 24.673 12.638C24.3854 12.0735 23.9265 11.6146 23.362 11.327C22.8163 11.049 22.1272 11.0073 20.9002 11.0011" stroke="black" stroke-width="1.5" stroke-linecap="round" stroke-linejoin="round"/>
</svg>
